<svg id="Layer_1" data-name="Layer 1" xmlns="http://www.w3.org/2000/svg" viewBox="0 0 94.95 117.56"><defs><style>.cls-1{fill:#ffcd00;}.cls-2{fill:#231f20;}</style></defs><rect class="cls-1" x="1.9" y="3.27" width="90.37" height="110.94"/><path class="cls-2" d="M51.9,103.4c0,3.14.52,3.48,5,3.48s4.94-.34,4.94-3.48c0-2.24-.28-2.92-2.06-3.13,1.51-.22,1.76-.91,1.76-2.78,0-3-.48-3.47-4.64-3.47s-4.67.48-4.67,3.47c0,1.87.25,2.56,1.77,2.78C52.19,100.48,51.9,101.18,51.9,103.4Zm5-7.55c2,0,2.22.19,2.22,1.73s-.25,1.79-2.22,1.79-2.24-.19-2.24-1.79S54.87,95.85,56.86,95.85Zm0,5.35c2.24,0,2.51.21,2.51,2s-.27,1.88-2.51,1.88-2.52-.2-2.52-1.88S54.61,101.2,56.86,101.2Z"/><path class="cls-2" d="M30.92,103.4c0,3.14.52,3.48,5,3.48s4.94-.34,4.94-3.48c0-2.24-.29-2.92-2.06-3.13,1.5-.22,1.75-.91,1.75-2.78,0-3-.48-3.47-4.63-3.47s-4.68.48-4.68,3.47c0,1.87.25,2.56,1.77,2.78C31.21,100.48,30.92,101.18,30.92,103.4Zm5-7.55c2,0,2.22.19,2.22,1.73s-.25,1.79-2.22,1.79-2.24-.19-2.24-1.79S33.9,95.85,35.89,95.85Zm0,5.35c2.23,0,2.5.21,2.5,2s-.27,1.88-2.5,1.88-2.53-.2-2.53-1.88S33.63,101.2,35.89,101.2Z"/><path class="cls-2" d="M77.71,105.05c-2.16,0-2.36-.2-2.36-1.86l-2.42.14c0,3.12.45,3.53,4.78,3.55s4.77-.4,4.77-3.78-.56-3.94-4.48-3.94a10.38,10.38,0,0,0-2.45.21l0-3.35H80l.15,1.44h2V94.18H73.36l-.11,7c1.35-.12,2.46-.21,4.18-.21,2.43,0,2.63.46,2.63,2.18S79.77,105.05,77.71,105.05Z"/><path class="cls-2" d="M71,14.45c.16-.29.42-.69.66-1.06-.17-.42-.46-1.1-.61-1.13s-1,1.08-1.47,2.13A6.58,6.58,0,0,1,71,14.45Z"/><polygon class="cls-2" points="15.55 96.28 15.55 104.89 12.72 105 12.72 106.72 20.55 106.72 20.55 105 17.97 104.89 17.97 94.18 16.93 94.18 16.92 94.2 12.47 94.88 12.74 96.63 15.55 96.28"/><path class="cls-2" d="M0,0V117.56H95V0ZM3.55,3.87H91.4V76.49l-1.15-1.64-3.33-2.76-5-2.88-2.43-.43-2.3-.44s-2.33-1.58-3.11-1.55a7.75,7.75,0,0,0-2.43,1.11L69.78,68l-.63.4c-.19-.77-.38-1.63-.38-1.65-.19-1-.42-2.27-.42-2.48s-.25-1.85-.27-2.55a17.88,17.88,0,0,0-.56-2.59l-.1-7.9a9,9,0,0,1-2.49,1.73S63.2,59.56,63.68,64a9.64,9.64,0,0,0,.46,1.13c.27.54.92,2.2,1.37,3.38h0c.13.33.34,1,.47,1.44l-.23.1-.45-.86c-.38-.69-2.19-.36-2.55-.61s-.34-.83-.37-1.15v-.19h0c0-.28-.05-.53-.05-.53l.06-1.83S62.49,54,63.63,50v-.06h0c0-.06,0-.13.06-.18s3,.1,6.31-3.9a22.57,22.57,0,0,0,2.56-4.64c.09-.27.17-.56.25-.85a4.54,4.54,0,0,0-1.3-2.11,7.59,7.59,0,0,1,1.59.21A4.12,4.12,0,0,0,73,37.12c-.39-1.21.82-2.94,1.45-3.37s.58-1.53.57-1.88-.19-.68-.29-1.21h0a8.38,8.38,0,0,1-.36-3.49A2.11,2.11,0,0,0,76,29.3l.41,0h0c.7.07,1.44.21,1.88.28,1,.13,1.42-1.33,1.42-1.33s.56-.49,1.24-1.15,1-.91.81-1.71-4.38-4-4.38-4v0a22.22,22.22,0,0,0-2-1.42s.61-.49,1.11-.2-.07.5,1,1.31a3.87,3.87,0,0,0-.11-1.52,16.19,16.19,0,0,0-2.76-3L73.93,18l.42-4a7.63,7.63,0,0,0-.15-2.43c-.27-.65-.91,0-1.48.83h0a21.57,21.57,0,0,0-1.33,2.74s-1-.08-2-.09v0a6.79,6.79,0,0,0-1.43.07l-.15,0a3.26,3.26,0,0,0-1.69.75C64.92,17,62,20.72,62,20.72s-2.91,3.06-3.48,3.43A8.36,8.36,0,0,1,55.48,26a5.41,5.41,0,0,0-.39,1.15,2.78,2.78,0,0,0,.37,1.77s-.5-.33-1.14-.71c-2,1.39-7.16,4.27-7.66,4.61s-3.06,2.15-5,2.39c0,0-12.75,2.71-13.4,3.84A7.48,7.48,0,0,0,24,43.22c-.59,1.3-2.12,5.59-3.76,8.55s-7.16,6.07-8,6.74-1.9.47-.45,1.93,5.08.92,7.73.07l.34-.13a2.94,2.94,0,0,1,.5-.24,8.87,8.87,0,0,0,1.06-.67,12.18,12.18,0,0,0,2.46-4c-.09-.16-.18-.35-.27-.55a4.11,4.11,0,0,1,.54-4.1A5.26,5.26,0,0,0,26,55.56a1.8,1.8,0,0,1,.85,1.11c.54,2.1-1,4.49-2.47,5.76-1.05.92-1.11,1.08-1,2.11,0,0,3,8.9,2.1,12.11l-1.75.52a32.78,32.78,0,0,0-.19-10c0,.93-.14,2-.27,3.09,0,0-.58,4.65-1.16,5.58A2.68,2.68,0,0,0,22,77.53l-2.22.69s-3.1,1.07-3.53,1.2a15.09,15.09,0,0,1-2.26.1s-2.88.06-3.4.12a19.28,19.28,0,0,0-2.74,1.19l-1.92.07-2.38.8ZM59.1,71.56l-1.79.8L52,73.86l-4.33.59s-3.13.19-4-.38-3.76-.31-4-.3-2.33.61-3.88,1.1c-.47.15-1,.32-1.5.5a10,10,0,0,0-4.79-1.73,2.83,2.83,0,0,1-.33-1.09,62.56,62.56,0,0,1-.27-7.37C29,64,32.07,62,34.72,59.74A10.1,10.1,0,0,0,38,54.63a5.52,5.52,0,0,1,1.56-1.74c.8-.44,3.2-.06,4.91.64s11,.13,11,.13a73.08,73.08,0,0,0,1.85,9.52c.3,1.08.85,3.43,1.22,5S59.07,71.32,59.1,71.56ZM91.4,114H3.55V86.63H91.4Z"/></svg>